<mxfile host="65bd71144e">
    <diagram id="qE55evyGQ_RHnYP9zdxh" name="Страница 1">
        <mxGraphModel dx="1049" dy="836" grid="1" gridSize="10" guides="1" tooltips="1" connect="1" arrows="1" fold="1" page="1" pageScale="1" pageWidth="1169" pageHeight="827" background="none" math="0" shadow="0">
            <root>
                <mxCell id="0"/>
                <mxCell id="1" parent="0"/>
                <mxCell id="mx6zC1J6zyPSWWnlc8Ze-1" value="Actor" style="shape=umlActor;verticalLabelPosition=bottom;verticalAlign=top;html=1;outlineConnect=0;rounded=0;" parent="1" vertex="1">
                    <mxGeometry x="60" y="180" width="30" height="60" as="geometry"/>
                </mxCell>
                <mxCell id="mx6zC1J6zyPSWWnlc8Ze-3" value="" style="rounded=0;whiteSpace=wrap;html=1;" parent="1" vertex="1">
                    <mxGeometry x="170" y="60" width="880" height="690" as="geometry"/>
                </mxCell>
                <mxCell id="mx6zC1J6zyPSWWnlc8Ze-4" value="Приложение &quot;Петроэлекстросбыт&quot;" style="text;html=1;strokeColor=none;fillColor=none;align=center;verticalAlign=middle;whiteSpace=wrap;rounded=0;hachureGap=4;fontFamily=Times New Roman;fontSize=20;fontStyle=1;" parent="1" vertex="1">
                    <mxGeometry x="180" y="60" width="220" height="50" as="geometry"/>
                </mxCell>
                <mxCell id="mx6zC1J6zyPSWWnlc8Ze-5" value="Регистрация" style="ellipse;whiteSpace=wrap;html=1;fontSize=16;" parent="1" vertex="1">
                    <mxGeometry x="280" y="230" width="120" height="40" as="geometry"/>
                </mxCell>
                <mxCell id="mx6zC1J6zyPSWWnlc8Ze-7" value="ФИО&lt;br&gt;Лицевой счет&lt;br&gt;Пароль" style="rounded=0;whiteSpace=wrap;html=1;fontSize=16;" parent="1" vertex="1">
                    <mxGeometry x="270" y="300" width="110" height="60" as="geometry"/>
                </mxCell>
                <mxCell id="mx6zC1J6zyPSWWnlc8Ze-8" value="" style="endArrow=none;html=1;rounded=0;fontSize=12;curved=1;exitX=0.5;exitY=0.5;exitDx=0;exitDy=0;exitPerimeter=0;entryX=0;entryY=0.5;entryDx=0;entryDy=0;" parent="1" source="mx6zC1J6zyPSWWnlc8Ze-1" target="mx6zC1J6zyPSWWnlc8Ze-5" edge="1">
                    <mxGeometry width="50" height="50" relative="1" as="geometry">
                        <mxPoint x="140" y="439" as="sourcePoint"/>
                        <mxPoint x="190" y="389" as="targetPoint"/>
                    </mxGeometry>
                </mxCell>
                <mxCell id="mx6zC1J6zyPSWWnlc8Ze-9" value="Actor" style="shape=umlActor;verticalLabelPosition=bottom;verticalAlign=top;html=1;outlineConnect=0;rounded=0;" parent="1" vertex="1">
                    <mxGeometry x="60" y="530" width="30" height="60" as="geometry"/>
                </mxCell>
                <mxCell id="mx6zC1J6zyPSWWnlc8Ze-11" value="" style="endArrow=none;html=1;rounded=0;fontSize=12;curved=1;exitX=0;exitY=0;exitDx=0;exitDy=0;entryX=0;entryY=0.5;entryDx=0;entryDy=0;" parent="1" source="mx6zC1J6zyPSWWnlc8Ze-7" target="mx6zC1J6zyPSWWnlc8Ze-5" edge="1">
                    <mxGeometry width="50" height="50" relative="1" as="geometry">
                        <mxPoint x="235" y="320" as="sourcePoint"/>
                        <mxPoint x="270" y="250" as="targetPoint"/>
                    </mxGeometry>
                </mxCell>
                <mxCell id="mx6zC1J6zyPSWWnlc8Ze-12" value="Авторизация" style="ellipse;whiteSpace=wrap;html=1;fontSize=16;" parent="1" vertex="1">
                    <mxGeometry x="480" y="140" width="120" height="40" as="geometry"/>
                </mxCell>
                <mxCell id="mx6zC1J6zyPSWWnlc8Ze-14" value="Новый&lt;br&gt;пользователь" style="text;html=1;strokeColor=none;fillColor=none;align=center;verticalAlign=middle;whiteSpace=wrap;rounded=0;fontSize=16;" parent="1" vertex="1">
                    <mxGeometry x="15" y="270" width="120" height="40" as="geometry"/>
                </mxCell>
                <mxCell id="mx6zC1J6zyPSWWnlc8Ze-15" value="Авторизованный&amp;nbsp;&lt;br&gt;пользователь" style="text;html=1;strokeColor=none;fillColor=none;align=center;verticalAlign=middle;whiteSpace=wrap;rounded=0;fontSize=16;" parent="1" vertex="1">
                    <mxGeometry x="10" y="620" width="150" height="40" as="geometry"/>
                </mxCell>
                <mxCell id="mx6zC1J6zyPSWWnlc8Ze-17" value="Ввод показаний счетчика" style="ellipse;whiteSpace=wrap;html=1;fontSize=16;" parent="1" vertex="1">
                    <mxGeometry x="380" y="390" width="170" height="70" as="geometry"/>
                </mxCell>
                <mxCell id="mx6zC1J6zyPSWWnlc8Ze-18" value="" style="endArrow=none;html=1;rounded=0;fontSize=12;curved=1;exitX=0.5;exitY=0.5;exitDx=0;exitDy=0;exitPerimeter=0;entryX=0;entryY=0.5;entryDx=0;entryDy=0;" parent="1" source="mx6zC1J6zyPSWWnlc8Ze-9" target="mx6zC1J6zyPSWWnlc8Ze-17" edge="1">
                    <mxGeometry width="50" height="50" relative="1" as="geometry">
                        <mxPoint x="500" y="440" as="sourcePoint"/>
                        <mxPoint x="550" y="390" as="targetPoint"/>
                    </mxGeometry>
                </mxCell>
                <mxCell id="mx6zC1J6zyPSWWnlc8Ze-19" value="Привязка банк.карты" style="ellipse;whiteSpace=wrap;html=1;fontSize=16;" parent="1" vertex="1">
                    <mxGeometry x="440" y="240" width="150" height="50" as="geometry"/>
                </mxCell>
                <mxCell id="mx6zC1J6zyPSWWnlc8Ze-26" value="" style="endArrow=classic;html=1;rounded=0;dashed=1;fontSize=12;curved=1;exitX=0.5;exitY=1;exitDx=0;exitDy=0;entryX=0.5;entryY=0;entryDx=0;entryDy=0;" parent="1" source="mx6zC1J6zyPSWWnlc8Ze-17" target="mx6zC1J6zyPSWWnlc8Ze-27" edge="1">
                    <mxGeometry width="50" height="50" relative="1" as="geometry">
                        <mxPoint x="500" y="430" as="sourcePoint"/>
                        <mxPoint x="550" y="380" as="targetPoint"/>
                    </mxGeometry>
                </mxCell>
                <mxCell id="mx6zC1J6zyPSWWnlc8Ze-27" value="указать период&lt;br&gt;для отчета" style="ellipse;whiteSpace=wrap;html=1;fontSize=16;" parent="1" vertex="1">
                    <mxGeometry x="395" y="530" width="140" height="60" as="geometry"/>
                </mxCell>
                <mxCell id="mx6zC1J6zyPSWWnlc8Ze-28" value="extend" style="text;html=1;strokeColor=none;fillColor=none;align=center;verticalAlign=middle;whiteSpace=wrap;rounded=0;fontSize=16;rotation=0;" parent="1" vertex="1">
                    <mxGeometry x="395" y="480" width="60" height="30" as="geometry"/>
                </mxCell>
                <mxCell id="mx6zC1J6zyPSWWnlc8Ze-29" value="Запрос по оплате&amp;nbsp;&lt;br&gt;лицевого счета" style="ellipse;whiteSpace=wrap;html=1;fontSize=16;" parent="1" vertex="1">
                    <mxGeometry x="387.5" y="650" width="155" height="70" as="geometry"/>
                </mxCell>
                <mxCell id="mx6zC1J6zyPSWWnlc8Ze-30" value="" style="endArrow=classic;html=1;rounded=0;dashed=1;fontSize=12;curved=1;exitX=0.5;exitY=1;exitDx=0;exitDy=0;entryX=0.5;entryY=0;entryDx=0;entryDy=0;" parent="1" source="mx6zC1J6zyPSWWnlc8Ze-27" target="mx6zC1J6zyPSWWnlc8Ze-29" edge="1">
                    <mxGeometry width="50" height="50" relative="1" as="geometry">
                        <mxPoint x="475" y="470" as="sourcePoint"/>
                        <mxPoint x="475" y="540" as="targetPoint"/>
                    </mxGeometry>
                </mxCell>
                <mxCell id="mx6zC1J6zyPSWWnlc8Ze-31" value="include" style="text;html=1;strokeColor=none;fillColor=none;align=center;verticalAlign=middle;whiteSpace=wrap;rounded=0;fontSize=16;rotation=0;" parent="1" vertex="1">
                    <mxGeometry x="400" y="600" width="60" height="30" as="geometry"/>
                </mxCell>
                <mxCell id="mx6zC1J6zyPSWWnlc8Ze-32" value="Оплата услуг" style="ellipse;whiteSpace=wrap;html=1;fontSize=16;" parent="1" vertex="1">
                    <mxGeometry x="590" y="330" width="120" height="40" as="geometry"/>
                </mxCell>
                <mxCell id="mx6zC1J6zyPSWWnlc8Ze-33" value="" style="endArrow=classic;html=1;rounded=0;dashed=1;fontSize=12;curved=1;exitX=1;exitY=0;exitDx=0;exitDy=0;entryX=0;entryY=0.5;entryDx=0;entryDy=0;" parent="1" source="mx6zC1J6zyPSWWnlc8Ze-17" target="mx6zC1J6zyPSWWnlc8Ze-32" edge="1">
                    <mxGeometry width="50" height="50" relative="1" as="geometry">
                        <mxPoint x="500" y="420" as="sourcePoint"/>
                        <mxPoint x="550" y="370" as="targetPoint"/>
                    </mxGeometry>
                </mxCell>
                <mxCell id="mx6zC1J6zyPSWWnlc8Ze-34" value="include" style="text;html=1;strokeColor=none;fillColor=none;align=center;verticalAlign=middle;whiteSpace=wrap;rounded=0;fontSize=16;rotation=-30;" parent="1" vertex="1">
                    <mxGeometry x="510" y="340" width="60" height="30" as="geometry"/>
                </mxCell>
                <mxCell id="mx6zC1J6zyPSWWnlc8Ze-35" value="Ввод данных&amp;nbsp;&lt;br&gt;банк. карты" style="ellipse;whiteSpace=wrap;html=1;fontSize=16;" parent="1" vertex="1">
                    <mxGeometry x="590" y="530" width="120" height="70" as="geometry"/>
                </mxCell>
                <mxCell id="mx6zC1J6zyPSWWnlc8Ze-36" value="" style="endArrow=classic;html=1;rounded=0;dashed=1;fontSize=12;curved=1;exitX=0.5;exitY=1;exitDx=0;exitDy=0;entryX=0.5;entryY=0;entryDx=0;entryDy=0;endFill=1;" parent="1" source="mx6zC1J6zyPSWWnlc8Ze-32" target="mx6zC1J6zyPSWWnlc8Ze-35" edge="1">
                    <mxGeometry width="50" height="50" relative="1" as="geometry">
                        <mxPoint x="535.7635124072303" y="410.52580750264315" as="sourcePoint"/>
                        <mxPoint x="600" y="360" as="targetPoint"/>
                    </mxGeometry>
                </mxCell>
                <mxCell id="mx6zC1J6zyPSWWnlc8Ze-37" value="include" style="text;html=1;strokeColor=none;fillColor=none;align=center;verticalAlign=middle;whiteSpace=wrap;rounded=0;fontSize=16;rotation=-90;" parent="1" vertex="1">
                    <mxGeometry x="600" y="440" width="60" height="30" as="geometry"/>
                </mxCell>
                <mxCell id="mx6zC1J6zyPSWWnlc8Ze-38" value="Подтверждение&lt;br&gt;оплаты" style="ellipse;whiteSpace=wrap;html=1;fontSize=16;" parent="1" vertex="1">
                    <mxGeometry x="890" y="315" width="140" height="70" as="geometry"/>
                </mxCell>
                <mxCell id="mx6zC1J6zyPSWWnlc8Ze-39" value="" style="endArrow=classic;html=1;rounded=0;dashed=1;fontSize=12;curved=1;exitX=1;exitY=0.5;exitDx=0;exitDy=0;entryX=0;entryY=0.5;entryDx=0;entryDy=0;" parent="1" source="mx6zC1J6zyPSWWnlc8Ze-32" target="mx6zC1J6zyPSWWnlc8Ze-38" edge="1">
                    <mxGeometry width="50" height="50" relative="1" as="geometry">
                        <mxPoint x="500" y="400" as="sourcePoint"/>
                        <mxPoint x="550" y="350" as="targetPoint"/>
                    </mxGeometry>
                </mxCell>
                <mxCell id="mx6zC1J6zyPSWWnlc8Ze-40" value="include" style="text;html=1;strokeColor=none;fillColor=none;align=center;verticalAlign=middle;whiteSpace=wrap;rounded=0;fontSize=16;rotation=0;" parent="1" vertex="1">
                    <mxGeometry x="770" y="315" width="60" height="30" as="geometry"/>
                </mxCell>
                <mxCell id="mx6zC1J6zyPSWWnlc8Ze-41" value="Создание&lt;br&gt;Квитанции" style="ellipse;whiteSpace=wrap;html=1;fontSize=16;" parent="1" vertex="1">
                    <mxGeometry x="900" y="430" width="120" height="50" as="geometry"/>
                </mxCell>
                <mxCell id="mx6zC1J6zyPSWWnlc8Ze-42" value="" style="endArrow=classic;html=1;rounded=0;dashed=1;fontSize=12;curved=1;exitX=0.5;exitY=1;exitDx=0;exitDy=0;entryX=0.5;entryY=0;entryDx=0;entryDy=0;" parent="1" source="mx6zC1J6zyPSWWnlc8Ze-38" target="mx6zC1J6zyPSWWnlc8Ze-41" edge="1">
                    <mxGeometry width="50" height="50" relative="1" as="geometry">
                        <mxPoint x="500" y="390" as="sourcePoint"/>
                        <mxPoint x="550" y="340" as="targetPoint"/>
                    </mxGeometry>
                </mxCell>
                <mxCell id="mx6zC1J6zyPSWWnlc8Ze-44" value="include" style="text;html=1;strokeColor=none;fillColor=none;align=center;verticalAlign=middle;whiteSpace=wrap;rounded=0;fontSize=16;rotation=0;" parent="1" vertex="1">
                    <mxGeometry x="890" y="390" width="60" height="30" as="geometry"/>
                </mxCell>
                <mxCell id="mx6zC1J6zyPSWWnlc8Ze-45" value="Скачивание&lt;br&gt;квитанции" style="ellipse;whiteSpace=wrap;html=1;fontSize=16;" parent="1" vertex="1">
                    <mxGeometry x="900" y="520" width="120" height="50" as="geometry"/>
                </mxCell>
                <mxCell id="mx6zC1J6zyPSWWnlc8Ze-46" value="" style="endArrow=classic;html=1;rounded=0;dashed=1;fontSize=12;curved=1;exitX=0.5;exitY=1;exitDx=0;exitDy=0;entryX=0.5;entryY=0;entryDx=0;entryDy=0;" parent="1" source="mx6zC1J6zyPSWWnlc8Ze-41" target="mx6zC1J6zyPSWWnlc8Ze-45" edge="1">
                    <mxGeometry width="50" height="50" relative="1" as="geometry">
                        <mxPoint x="860" y="395" as="sourcePoint"/>
                        <mxPoint x="860" y="440" as="targetPoint"/>
                    </mxGeometry>
                </mxCell>
                <mxCell id="mx6zC1J6zyPSWWnlc8Ze-47" value="extend" style="text;html=1;strokeColor=none;fillColor=none;align=center;verticalAlign=middle;whiteSpace=wrap;rounded=0;fontSize=16;rotation=0;" parent="1" vertex="1">
                    <mxGeometry x="890" y="480" width="60" height="30" as="geometry"/>
                </mxCell>
                <mxCell id="eztsaxHPXERKyohjWjVH-1" value="" style="endArrow=classic;html=1;rounded=0;exitX=1;exitY=0.5;exitDx=0;exitDy=0;entryX=0;entryY=0.5;entryDx=0;entryDy=0;dashed=1;" parent="1" source="mx6zC1J6zyPSWWnlc8Ze-5" target="mx6zC1J6zyPSWWnlc8Ze-19" edge="1">
                    <mxGeometry width="50" height="50" relative="1" as="geometry">
                        <mxPoint x="320" y="310" as="sourcePoint"/>
                        <mxPoint x="370" y="260" as="targetPoint"/>
                    </mxGeometry>
                </mxCell>
                <mxCell id="eztsaxHPXERKyohjWjVH-3" value="extend" style="text;html=1;strokeColor=none;fillColor=none;align=center;verticalAlign=middle;whiteSpace=wrap;rounded=0;rotation=25;" parent="1" vertex="1">
                    <mxGeometry x="395" y="230" width="60" height="30" as="geometry"/>
                </mxCell>
                <mxCell id="eztsaxHPXERKyohjWjVH-4" value="" style="endArrow=classic;html=1;rounded=0;dashed=1;exitX=1;exitY=0;exitDx=0;exitDy=0;entryX=0;entryY=0.5;entryDx=0;entryDy=0;" parent="1" source="mx6zC1J6zyPSWWnlc8Ze-5" target="mx6zC1J6zyPSWWnlc8Ze-12" edge="1">
                    <mxGeometry width="50" height="50" relative="1" as="geometry">
                        <mxPoint x="330" y="340" as="sourcePoint"/>
                        <mxPoint x="380" y="290" as="targetPoint"/>
                    </mxGeometry>
                </mxCell>
                <mxCell id="eztsaxHPXERKyohjWjVH-5" value="include" style="text;html=1;strokeColor=none;fillColor=none;align=center;verticalAlign=middle;whiteSpace=wrap;rounded=0;rotation=-45;" parent="1" vertex="1">
                    <mxGeometry x="400" y="170" width="60" height="30" as="geometry"/>
                </mxCell>
                <mxCell id="eztsaxHPXERKyohjWjVH-7" value="Если карта не была привязанга&lt;br&gt;при регистрации" style="shape=note;whiteSpace=wrap;html=1;backgroundOutline=1;darkOpacity=0.05;" parent="1" vertex="1">
                    <mxGeometry x="670" y="440" width="160" height="70" as="geometry"/>
                </mxCell>
                <mxCell id="eztsaxHPXERKyohjWjVH-8" value="" style="endArrow=none;html=1;rounded=0;entryX=0.5;entryY=1;entryDx=0;entryDy=0;entryPerimeter=0;exitX=0.5;exitY=0;exitDx=0;exitDy=0;" parent="1" source="mx6zC1J6zyPSWWnlc8Ze-35" target="eztsaxHPXERKyohjWjVH-7" edge="1">
                    <mxGeometry width="50" height="50" relative="1" as="geometry">
                        <mxPoint x="600" y="540" as="sourcePoint"/>
                        <mxPoint x="650" y="490" as="targetPoint"/>
                    </mxGeometry>
                </mxCell>
            </root>
        </mxGraphModel>
    </diagram>
</mxfile>